<svg width="150" height="150" viewBox="0 0 150 150" xmlns="http://www.w3.org/2000/svg">
  <defs>
    <linearGradient id="bg5" x1="0%" y1="0%" x2="100%" y2="100%">
      <stop offset="0%" style="stop-color:#8B5CF6;stop-opacity:1" />
      <stop offset="100%" style="stop-color:#6D28D9;stop-opacity:1" />
    </linearGradient>
  </defs>
  
  <!-- Background circle -->
  <circle cx="75" cy="75" r="75" fill="url(#bg5)"/>
  
  <!-- Person silhouette -->
  <g transform="translate(75, 75)">
    <!-- Head -->
    <circle cx="0" cy="-25" r="20" fill="rgba(255,255,255,0.9)"/>
    
    <!-- Modern hairstyle -->
    <path d="M -19 -43 Q -5 -47 5 -46 Q 15 -44 19 -38 Q 20 -32 18 -28 Q 12 -23 0 -23 Q -12 -23 -18 -28 Q -20 -32 -19 -38 Q -19 -43 -19 -43 Z" fill="rgba(255,255,255,0.6)"/>
    
    <!-- Body -->
    <ellipse cx="0" cy="15" rx="25" ry="35" fill="rgba(255,255,255,0.9)"/>
    
    <!-- Casual blazer -->
    <path d="M -21 -6 Q -26 -1 -26 9 L -26 44 Q -26 49 -21 49 L 21 49 Q 26 49 26 44 L 26 9 Q 26 -1 21 -6 Z" fill="rgba(255,255,255,0.7)"/>
    
    <!-- V-neck shirt -->
    <path d="M -10 -6 L 0 5 L 10 -6 L 15 -2 L 10 8 L 0 12 L -10 8 L -15 -2 Z" fill="rgba(255,255,255,0.5)"/>
  </g>
</svg>