<svg width="150" height="150" viewBox="0 0 150 150" xmlns="http://www.w3.org/2000/svg">
  <defs>
    <linearGradient id="bg3" x1="0%" y1="0%" x2="100%" y2="100%">
      <stop offset="0%" style="stop-color:#10B981;stop-opacity:1" />
      <stop offset="100%" style="stop-color:#059669;stop-opacity:1" />
    </linearGradient>
  </defs>
  
  <!-- Background circle -->
  <circle cx="75" cy="75" r="75" fill="url(#bg3)"/>
  
  <!-- Person silhouette -->
  <g transform="translate(75, 75)">
    <!-- Head -->
    <circle cx="0" cy="-25" r="20" fill="rgba(255,255,255,0.9)"/>
    
    <!-- Hair (shoulder length) -->
    <path d="M -20 -42 Q 0 -47 20 -42 Q 22 -30 20 -15 Q 15 -10 5 -12 Q -5 -12 -15 -10 Q -20 -15 -22 -30 Q -20 -42 -20 -42 Z" fill="rgba(255,255,255,0.6)"/>
    
    <!-- Body -->
    <ellipse cx="0" cy="15" rx="25" ry="35" fill="rgba(255,255,255,0.9)"/>
    
    <!-- Professional blazer -->
    <path d="M -22 -8 Q -27 -3 -27 7 L -27 42 Q -27 47 -22 47 L 22 47 Q 27 47 27 42 L 27 7 Q 27 -3 22 -8 Z" fill="rgba(255,255,255,0.7)"/>
    
    <!-- Lapels -->
    <path d="M -15 -8 L -8 -2 L -8 10 L -15 5 Z" fill="rgba(255,255,255,0.5)"/>
    <path d="M 15 -8 L 8 -2 L 8 10 L 15 5 Z" fill="rgba(255,255,255,0.5)"/>
  </g>
</svg>